<svg width="186" height="47" viewBox="0 0 186 47" fill="none" xmlns="http://www.w3.org/2000/svg">
<path d="M0 21.261V4.57874L4.00821 0.496917H16.1374L20.0759 4.50775V8.30562H15.3358V6.28246L13.6976 4.61423H6.5177L4.74014 6.42443V19.4153L6.5177 21.2255H13.7673L15.4752 19.4863V15.6174H10.2471V11.5001H20.0759V21.261L16.0677 25.3428H4.00821L0 21.261Z" fill="white"/>
<path d="M23.5537 21.6159V7.66672H28.1544V20.1606L29.3394 21.3674H32.1278L35.5435 17.889V7.66672H40.1442V25.3428H35.892V22.3258L32.8945 25.3428H27.2134L23.5537 21.6159Z" fill="white"/>
<path d="M43.7976 22.0773V18.031L47.0042 14.7655H55.8222V12.5294L54.7417 11.4291H49.5136L48.468 12.5294V13.5232H43.937V11.5001L47.6664 7.66672H56.6239L60.3532 11.5001V25.3428H56.2056V22.8227L53.6264 25.3428H47.0042L43.7976 22.0773ZM53.3127 21.7224L55.8222 19.2733V18.102H49.2697L48.3286 19.0603V20.835L49.2 21.7224H53.3127Z" fill="white"/>
<path d="M64.3683 7.66672H68.6204V10.6127L71.4088 7.66672H76.358V11.6421H72.3498L68.969 15.1915V25.3428H64.3683V7.66672Z" fill="white"/>
<path d="M77.3963 21.6514V11.3581L80.9863 7.66672H87.8874L89.9437 9.47692V0H94.5445V25.3428H90.2226V22.6097L87.5388 25.3428H80.9863L77.3963 21.6514ZM87.1206 21.3674L89.9437 18.4214V13.8072L87.5737 11.6421H83.3215L81.997 13.0263V19.9832L83.3215 21.3674H87.1206Z" fill="white"/>
<path d="M98.5374 3.97534V1.70372L100.141 0.0709894H102.58L104.184 1.70372V3.97534L102.58 5.60807H100.141L98.5374 3.97534ZM99.0602 7.66672H103.661V25.3428H99.0602V7.66672Z" fill="white"/>
<path d="M107.685 22.0773V18.031L110.892 14.7655H119.71V12.5294L118.629 11.4291H113.401L112.356 12.5294V13.5232H107.825V11.5001L111.554 7.66672H120.512L124.241 11.5001V25.3428H120.093V22.8227L117.514 25.3428H110.892L107.685 22.0773ZM117.2 21.7224L119.71 19.2733V18.102H113.157L112.216 19.0603V20.835L113.088 21.7224H117.2Z" fill="white"/>
<path d="M128.256 7.66672H132.508V10.6127L135.401 7.66672H141.012L144.881 11.6066V25.3428H140.281V12.8844L139.096 11.6421H136.168L132.857 15.0495V25.3428H128.256V7.66672Z" fill="white"/>
<path d="M165.384 0.496917H169.706L178.629 25.3428H173.819L171.832 19.8412H163.258L161.272 25.3428H156.462L165.384 0.496917ZM170.787 15.8659L167.545 6.42443H167.476L164.339 15.8659H170.787Z" fill="white"/>
<path d="M181.26 0.496917H186V25.3428H181.26V0.496917Z" fill="white"/>
<path d="M0 46.7611V32.8225H4.52901C5.42952 32.8225 6.22408 33.0084 6.9127 33.3801C7.61456 33.7518 8.15752 34.2695 8.54155 34.9332C8.93884 35.597 9.13748 36.3669 9.13748 37.243C9.13748 38.0926 8.9587 38.8493 8.60115 39.513C8.24359 40.1768 7.75361 40.7011 7.1312 41.0861C6.5088 41.4578 5.78707 41.6436 4.96602 41.6436H1.68845V46.7611H0ZM1.68845 40.1104H4.96602C5.69437 40.1104 6.29029 39.8449 6.75379 39.3139C7.23052 38.7696 7.46889 38.0793 7.46889 37.243C7.46889 36.3802 7.1908 35.6832 6.6346 35.1522C6.07841 34.6213 5.36992 34.3558 4.50915 34.3558H1.68845V40.1104Z" fill="white"/>
<path d="M16.9706 46.7611L16.8911 45.1283V41.5042C16.8911 40.721 16.8051 40.0772 16.6329 39.5728C16.4608 39.055 16.1893 38.6634 15.8185 38.3979C15.4477 38.1324 14.9643 37.9997 14.3684 37.9997C13.8255 37.9997 13.3553 38.1125 12.9581 38.3382C12.574 38.5506 12.2562 38.8957 12.0046 39.3736L10.5744 38.8161C10.826 38.3515 11.1306 37.9532 11.4881 37.6214C11.8457 37.2762 12.2628 37.0174 12.7395 36.8448C13.2163 36.6589 13.7592 36.566 14.3684 36.566C15.2954 36.566 16.0568 36.7519 16.6528 37.1236C17.2619 37.482 17.7188 38.0196 18.0234 38.7364C18.328 39.44 18.4736 40.3161 18.4604 41.3648L18.4405 46.7611H16.9706ZM13.991 47C12.8256 47 11.9119 46.7345 11.2497 46.2035C10.6008 45.6592 10.2764 44.9092 10.2764 43.9534C10.2764 42.9445 10.6075 42.1746 11.2696 41.6436C11.945 41.0994 12.8852 40.8272 14.0903 40.8272H16.9309V42.1613H14.4479C13.5209 42.1613 12.8587 42.314 12.4615 42.6193C12.0774 42.9246 11.8854 43.3627 11.8854 43.9335C11.8854 44.4512 12.0774 44.8628 12.4615 45.1681C12.8455 45.4601 13.3818 45.6061 14.0704 45.6061C14.6399 45.6061 15.1365 45.4867 15.5602 45.2477C15.984 44.9955 16.3085 44.6437 16.5336 44.1924C16.772 43.7278 16.8911 43.1835 16.8911 42.5596H17.5665C17.5665 43.9136 17.2619 44.9955 16.6528 45.8053C16.0436 46.6018 15.1563 47 13.991 47Z" fill="white"/>
<path d="M21.8525 41.3648C21.8525 40.2896 22.0578 39.4201 22.4683 38.7564C22.8788 38.0793 23.4019 37.5815 24.0376 37.2629C24.6864 36.9311 25.3684 36.7651 26.0836 36.7651V38.2585C25.5009 38.2585 24.9381 38.3581 24.3951 38.5572C23.8654 38.7431 23.4284 39.055 23.0841 39.4931C22.7398 39.9312 22.5676 40.5285 22.5676 41.2852L21.8525 41.3648ZM20.9785 46.7611V36.805H22.5676V46.7611H20.9785Z" fill="white"/>
<path d="M32.0406 47C31.0739 47 30.2197 46.781 29.4781 46.3429C28.7365 45.8916 28.1539 45.2743 27.7301 44.4911C27.3196 43.7078 27.1143 42.8052 27.1143 41.783C27.1143 40.7608 27.3196 39.8582 27.7301 39.0749C28.1539 38.2917 28.7299 37.6811 29.4583 37.243C30.1999 36.7917 31.0474 36.566 32.0009 36.566C32.9279 36.566 33.7291 36.7983 34.4044 37.2629C35.0798 37.7143 35.6029 38.3515 35.9737 39.1745C36.3445 39.9975 36.5299 40.9666 36.5299 42.0817H28.326L28.7233 41.7432C28.7233 42.5397 28.8624 43.2233 29.1404 43.7941C29.4318 44.365 29.8357 44.803 30.3522 45.1083C30.8686 45.4004 31.4579 45.5464 32.1201 45.5464C32.8219 45.5464 33.4112 45.3805 33.888 45.0486C34.3779 44.7167 34.7554 44.2787 35.0202 43.7344L36.3908 44.4313C36.1392 44.949 35.8015 45.4004 35.3778 45.7854C34.9672 46.1703 34.4773 46.469 33.9078 46.6814C33.3516 46.8938 32.7292 47 32.0406 47ZM28.8226 41.0662L28.4055 40.7476H35.2586L34.8414 41.0861C34.8414 40.4489 34.7156 39.898 34.464 39.4334C34.2124 38.9688 33.8747 38.6103 33.451 38.3581C33.0272 38.1059 32.5372 37.9798 31.981 37.9798C31.4381 37.9798 30.9216 38.1059 30.4316 38.3581C29.9549 38.6103 29.5642 38.9688 29.2596 39.4334C28.9683 39.8847 28.8226 40.429 28.8226 41.0662Z" fill="white"/>
<path d="M38.5341 46.7611V36.805H40.0239L40.1233 38.6369V46.7611H38.5341ZM45.5064 46.7611V41.6635H47.0956V46.7611H45.5064ZM45.5064 41.6635C45.5064 40.6812 45.3939 39.9312 45.1687 39.4135C44.9436 38.8957 44.6324 38.544 44.2351 38.3581C43.8378 38.159 43.3876 38.0594 42.8844 38.0594C42.0104 38.0594 41.3284 38.3714 40.8384 38.9953C40.3616 39.6059 40.1233 40.4754 40.1233 41.6038H39.3486C39.3486 40.5551 39.5009 39.6524 39.8054 38.8957C40.11 38.1391 40.5537 37.5616 41.1363 37.1634C41.719 36.7651 42.4209 36.566 43.2419 36.566C44.0232 36.566 44.6986 36.7253 45.2681 37.0439C45.8507 37.3492 46.301 37.8404 46.6188 38.5174C46.9499 39.1944 47.1088 40.0838 47.0956 41.1856V41.6635H45.5064Z" fill="white"/>
<path d="M53.3451 47C52.3784 47 51.6302 46.7478 51.1005 46.2433C50.5708 45.7389 50.3059 45.0287 50.3059 44.1127V33.6987H51.8951V43.9534C51.8951 44.4579 52.0275 44.8495 52.2923 45.1283C52.5704 45.3937 52.9545 45.5265 53.4445 45.5265C53.6034 45.5265 53.7557 45.5066 53.9013 45.4668C54.0602 45.4137 54.2655 45.2942 54.5171 45.1083L55.1329 46.4026C54.7886 46.6283 54.4774 46.781 54.1993 46.8606C53.9212 46.9535 53.6365 47 53.3451 47ZM48.5778 38.2187V36.805H54.8747V38.2187H48.5778Z" fill="white"/>
<path d="M63.1779 46.7611L63.0984 45.1283V41.5042C63.0984 40.721 63.0123 40.0772 62.8402 39.5728C62.668 39.055 62.3965 38.6634 62.0257 38.3979C61.6549 38.1324 61.1716 37.9997 60.5757 37.9997C60.0327 37.9997 59.5626 38.1125 59.1653 38.3382C58.7813 38.5506 58.4634 38.8957 58.2118 39.3736L56.7816 38.8161C57.0332 38.3515 57.3378 37.9532 57.6954 37.6214C58.0529 37.2762 58.4701 37.0174 58.9468 36.8448C59.4235 36.6589 59.9665 36.566 60.5757 36.566C61.5027 36.566 62.2641 36.7519 62.86 37.1236C63.4692 37.482 63.9261 38.0196 64.2307 38.7364C64.5352 39.44 64.6809 40.3161 64.6677 41.3648L64.6478 46.7611H63.1779ZM60.1982 47C59.0329 47 58.1191 46.7345 57.457 46.2035C56.8081 45.6592 56.4837 44.9092 56.4837 43.9534C56.4837 42.9445 56.8147 42.1746 57.4769 41.6436C58.1522 41.0994 59.0925 40.8272 60.2976 40.8272H63.1381V42.1613H60.6551C59.7281 42.1613 59.066 42.314 58.6687 42.6193C58.2847 42.9246 58.0927 43.3627 58.0927 43.9335C58.0927 44.4512 58.2847 44.8628 58.6687 45.1681C59.0528 45.4601 59.5891 45.6061 60.2777 45.6061C60.8471 45.6061 61.3437 45.4867 61.7675 45.2477C62.1913 44.9955 62.5157 44.6437 62.7409 44.1924C62.9792 43.7278 63.0984 43.1835 63.0984 42.5596H63.7738C63.7738 43.9136 63.4692 44.9955 62.86 45.8053C62.2509 46.6018 61.3636 47 60.1982 47Z" fill="white"/>
<path d="M67.1857 46.7611V32.8225H68.7749V46.7611H67.1857Z" fill="white"/>
<path d="M82.775 47C81.4507 47 80.2788 46.6947 79.2591 46.084C78.2394 45.4601 77.4382 44.6105 76.8555 43.5353C76.2728 42.4467 75.9815 41.1989 75.9815 39.7918C75.9815 38.3847 76.2662 37.1435 76.8357 36.0682C77.4183 34.9797 78.2129 34.1301 79.2193 33.5194C80.239 32.8955 81.4044 32.5836 82.7154 32.5836C83.5497 32.5836 84.3509 32.7362 85.119 33.0416C85.8871 33.3336 86.5757 33.7518 87.1848 34.296C87.794 34.827 88.2641 35.4443 88.5952 36.1479L87.1451 36.8846C86.8803 36.3271 86.5161 35.8425 86.0526 35.431C85.5891 35.0195 85.0726 34.7009 84.5032 34.4752C83.9338 34.2363 83.3378 34.1168 82.7154 34.1168C81.7487 34.1168 80.8813 34.3624 80.1132 34.8536C79.3451 35.3315 78.7426 35.9952 78.3056 36.8448C77.8818 37.6944 77.6699 38.6767 77.6699 39.7918C77.6699 40.9069 77.8884 41.8958 78.3255 42.7587C78.7625 43.6216 79.365 44.2986 80.1331 44.7897C80.9144 45.2676 81.7951 45.5066 82.775 45.5066C83.4107 45.5066 84.0132 45.3805 84.5826 45.1283C85.1521 44.8628 85.6619 44.5043 86.1122 44.053C86.5757 43.6017 86.9399 43.0839 87.2047 42.4998L88.6746 43.2366C88.3303 43.9667 87.8536 44.6172 87.2444 45.188C86.6485 45.7588 85.9599 46.2035 85.1786 46.5221C84.4105 46.8407 83.6093 47 82.775 47Z" fill="white"/>
<path d="M95.1643 47C94.1976 47 93.3368 46.781 92.582 46.3429C91.8404 45.8916 91.2577 45.2743 90.8339 44.4911C90.4102 43.7078 90.1983 42.8052 90.1983 41.783C90.1983 40.7608 90.4035 39.8582 90.8141 39.0749C91.2378 38.2917 91.8205 37.6811 92.5621 37.243C93.3169 36.7917 94.1711 36.566 95.1246 36.566C96.1045 36.566 96.9653 36.7917 97.7069 37.243C98.4617 37.6811 99.0444 38.2917 99.4549 39.0749C99.8787 39.8582 100.091 40.7608 100.091 41.783C100.091 42.8052 99.8787 43.7078 99.4549 44.4911C99.0444 45.2743 98.4684 45.8916 97.7268 46.3429C96.9852 46.781 96.131 47 95.1643 47ZM95.1643 45.5265C95.8264 45.5265 96.4025 45.3672 96.8925 45.0486C97.3825 44.73 97.7665 44.2919 98.0446 43.7344C98.3359 43.1769 98.4816 42.5264 98.4816 41.783C98.4816 41.0396 98.3359 40.3892 98.0446 39.8316C97.7665 39.2741 97.3758 38.836 96.8726 38.5174C96.3694 38.1988 95.7867 38.0395 95.1246 38.0395C94.4757 38.0395 93.8996 38.1988 93.3964 38.5174C92.9064 38.836 92.5158 39.2741 92.2244 39.8316C91.9463 40.3892 91.8073 41.0396 91.8073 41.783C91.8073 42.5131 91.9463 43.1636 92.2244 43.7344C92.5158 44.2919 92.913 44.73 93.4163 45.0486C93.9327 45.3672 94.5154 45.5265 95.1643 45.5265Z" fill="white"/>
<path d="M102.297 46.7611V36.805H103.787L103.886 38.6369V46.7611H102.297ZM109.269 46.7611V41.6635H110.858V46.7611H109.269ZM109.269 41.6635C109.269 40.6812 109.157 39.9312 108.932 39.4135C108.707 38.8957 108.395 38.544 107.998 38.3581C107.601 38.159 107.151 38.0594 106.647 38.0594C105.773 38.0594 105.091 38.3714 104.601 38.9953C104.125 39.6059 103.886 40.4754 103.886 41.6038H103.111C103.111 40.5551 103.264 39.6524 103.568 38.8957C103.873 38.1391 104.317 37.5616 104.899 37.1634C105.482 36.7651 106.184 36.566 107.005 36.566C107.786 36.566 108.462 36.7253 109.031 37.0439C109.614 37.3492 110.064 37.8404 110.382 38.5174C110.713 39.1944 110.872 40.0838 110.858 41.1856V41.6635H109.269Z" fill="white"/>
<path d="M117.108 47C116.141 47 115.393 46.7478 114.863 46.2433C114.334 45.7389 114.069 45.0287 114.069 44.1127V33.6987H115.658V43.9534C115.658 44.4579 115.79 44.8495 116.055 45.1283C116.333 45.3937 116.717 45.5265 117.207 45.5265C117.366 45.5265 117.519 45.5066 117.664 45.4668C117.823 45.4137 118.028 45.2942 118.28 45.1083L118.896 46.4026C118.552 46.6283 118.24 46.781 117.962 46.8606C117.684 46.9535 117.399 47 117.108 47ZM112.341 38.2187V36.805H118.638V38.2187H112.341Z" fill="white"/>
<path d="M121.755 41.3648C121.755 40.2896 121.96 39.4201 122.371 38.7564C122.781 38.0793 123.304 37.5815 123.94 37.2629C124.589 36.9311 125.271 36.7651 125.986 36.7651V38.2585C125.403 38.2585 124.84 38.3581 124.297 38.5572C123.768 38.7431 123.331 39.055 122.986 39.4931C122.642 39.9312 122.47 40.5285 122.47 41.2852L121.755 41.3648ZM120.881 46.7611V36.805H122.47V46.7611H120.881Z" fill="white"/>
<path d="M131.983 47C131.016 47 130.155 46.781 129.4 46.3429C128.659 45.8916 128.076 45.2743 127.652 44.4911C127.229 43.7078 127.017 42.8052 127.017 41.783C127.017 40.7608 127.222 39.8582 127.632 39.0749C128.056 38.2917 128.639 37.6811 129.38 37.243C130.135 36.7917 130.989 36.566 131.943 36.566C132.923 36.566 133.784 36.7917 134.525 37.243C135.28 37.6811 135.863 38.2917 136.273 39.0749C136.697 39.8582 136.909 40.7608 136.909 41.783C136.909 42.8052 136.697 43.7078 136.273 44.4911C135.863 45.2743 135.287 45.8916 134.545 46.3429C133.804 46.781 132.949 47 131.983 47ZM131.983 45.5265C132.645 45.5265 133.221 45.3672 133.711 45.0486C134.201 44.73 134.585 44.2919 134.863 43.7344C135.154 43.1769 135.3 42.5264 135.3 41.783C135.3 41.0396 135.154 40.3892 134.863 39.8316C134.585 39.2741 134.194 38.836 133.691 38.5174C133.188 38.1988 132.605 38.0395 131.943 38.0395C131.294 38.0395 130.718 38.1988 130.215 38.5174C129.725 38.836 129.334 39.2741 129.043 39.8316C128.765 40.3892 128.626 41.0396 128.626 41.783C128.626 42.5131 128.765 43.1636 129.043 43.7344C129.334 44.2919 129.731 44.73 130.235 45.0486C130.751 45.3672 131.334 45.5265 131.983 45.5265Z" fill="white"/>
<path d="M139.115 46.7611V32.8225H140.705V46.7611H139.115Z" fill="white"/>
</svg>
